<?xml version="1.0" encoding="UTF-8"?> <svg xmlns="http://www.w3.org/2000/svg" width="1859" height="600" viewBox="0 0 1859 600"> <g fill="none"> <path fill="#FFF" d="M1754.23 45.296H487.588C450.119 14.23 393.913 0 336.522 0h-.712C178.103.949 1.423 161.74.237 353.123 0 356.443 0 360 0 363.32c0 126.403 83.715 235.731 221.028 235.731 37.47 0 88.695-9.723 127.351-26.56h1292.253c60 0 123.795-47.906 140.633-106.246l72.806-290.514c1.66-8.774 4.032-19.21 4.032-30.356-.237-57.865-43.4-100.079-103.874-100.079z"></path> <path fill="#000" d="M1754.23 79.684H518.181c29.644 40.79 46.008 92.964 46.008 148.221v.949c0 128.063-74.23 242.846-169.091 309.486h1245.533c47.194 0 95.81-34.387 106.957-79.921l72.806-290.514c1.66-7.114 3.32-15.178 3.32-22.292 0-37.945-28.695-65.93-69.486-65.93z"></path> <path fill="#000" d="M336.522 30.119c-143.004 0-301.897 150.118-301.897 325.138 0 110.988 73.517 206.798 193.992 206.798 138.972 0 301.185-148.458 301.185-325.85 0-110.988-74.229-206.086-193.28-206.086-143.004 0-301.897 150.118-301.897 325.138 0 110.988 73.517 206.798 193.992 206.798 138.972 0 301.185-147.747 301.185-325.138"></path> <path fill="#F37521" d="M326.087 53.36c107.905 0 174.071 84.664 174.071 183.794 0 159.605-147.747 293.834-274.862 293.834-108.616 0-174.07-85.375-174.07-184.506 0-157.233 144.663-293.122 274.861-293.122zm1419.368 316.838c-7.352 30.593-13.755 51.936-20.633 82.055v-.711c-10.435 34.387-47.905 62.371-83.952 62.371H466.008c40.316-40.553 73.755-89.407 96.522-143.715z"></path> <path fill="#000" d="M431.62 237.154c0-81.344-54.308-149.407-138.972-149.407-103.162 0-217.233 108.617-217.233 233.36 0 81.344 53.597 150.118 138.972 150.118 101.265-.237 217.234-107.43 217.234-234.07z"></path> <path fill="#FFF" d="M1482.688 421.897c7.826 0 10.672 6.403 10.672 13.28-.237 13.044-8.538 26.562-21.107 26.562-2.846 0-5.455-.711-6.64-1.423h-.238l-3.32 16.127h-8.774l7.826-39.842c.948-4.743 1.66-10.198 2.371-13.992h7.826l-.948 6.403h.237c3.083-4.269 7.352-7.115 12.095-7.115zm-312.57.712c4.032 0 8.064.711 10.673 1.66l-4.27 20.395c-.948 5.455-1.896 12.332-1.66 17.075h-8.063v-.474c.238-2.135.238-4.98.712-8.063h-.237c-3.795 6.64-8.3 9.011-12.57 9.011-6.403 0-10.197-5.217-10.197-12.332.237-12.569 8.3-27.272 25.613-27.272zm-330.592 0c4.031 0 8.063.711 10.672 1.66l-4.27 20.395c-.948 5.455-1.66 12.332-1.66 17.075h-8.062v-.474c.237-2.135.237-4.98.711-8.063h-.237c-3.795 6.64-8.3 9.011-12.57 9.011-6.402 0-10.197-5.217-10.197-12.332.237-12.569 8.3-27.272 25.613-27.272zm-80.158 0c9.723 0 13.992 7.351 13.992 14.94-.237 12.095-8.538 24.664-21.107 24.664-9.249 0-13.992-6.64-13.992-14.94.237-12.57 8.537-24.664 21.107-24.664zm758.893 0c9.723 0 13.992 7.351 13.992 14.94-.237 12.095-8.538 24.664-21.107 24.664-9.249 0-13.992-6.64-13.992-14.94.237-12.57 8.538-24.664 21.107-24.664zm156.996 0c4.032 0 8.063.711 10.672 1.66l-4.269 20.395c-.949 5.455-1.897 12.332-1.66 17.075h-8.063v-.474c.237-2.135.237-4.98.711-8.063h-.237c-3.794 6.64-8.3 9.011-12.57 9.011-6.402 0-10.197-5.217-10.197-12.332.237-12.569 8.3-27.272 25.613-27.272zm-876.996-.475c6.64 0 11.62 2.846 11.383 9.012 0 5.218-4.743 8.3-8.774 9.486v.238c3.557.474 7.351 3.083 7.351 8.063-.237 9.249-9.723 13.043-17.786 13.043-8.775 0-13.044-3.794-12.807-11.383 0-7.115 3.32-19.921 9.96-24.901 2.847-2.135 6.404-3.558 10.673-3.558zm185.454.238c7.115 0 11.384 4.505 11.147 10.434-.237 9.96-9.724 13.281-23.241 12.807-.238 1.423 0 4.031.948 5.454 1.186 2.372 3.795 3.795 7.115 3.795 4.031 0 7.114-.949 9.723-2.372l.237 6.64c-3.557 1.66-8.063 2.846-12.332 2.846-10.197 0-14.466-6.403-14.229-15.178.237-11.146 7.826-24.426 20.632-24.426zM627.51 405.296l-1.423 7.352c-1.66.475-4.032.949-6.166 1.186-5.929.949-11.383 1.897-15.89 7.115-2.134 2.371-4.031 6.166-4.742 9.249h.237c2.846-4.27 7.114-7.115 12.332-7.115 8.063 0 11.857 6.64 11.62 14.23-.237 11.383-7.352 24.663-20.395 24.663-8.775 0-13.518-6.403-13.28-17.075.237-10.909 3.557-21.344 9.486-27.984 5.928-7.115 12.806-9.012 21.106-10.198 2.609-.237 5.218-.711 7.115-1.423zm721.897 17.076c7.115 0 11.384 4.505 11.146 10.434-.237 9.96-9.723 13.281-23.478 12.807-.237 1.423 0 4.031.949 5.454 1.185 2.372 3.794 3.795 7.114 3.795 4.032 0 7.115-.949 9.724-2.372l.474 6.64c-3.557 1.66-8.063 2.846-12.332 2.846-10.198 0-14.466-6.403-14.23-15.178.238-11.146 7.827-24.426 20.633-24.426zm-715.02.237l8.3.237-4.03 15.89h.236c2.372-2.372 6.403-4.032 9.724-4.032 5.928 0 9.723 3.794 9.723 10.197 0 8.3-6.878 16.838-19.21 16.838-5.454 0-11.146-1.423-11.146-8.537 0-2.135.474-4.98.949-7.115l5.454-23.478zm691.068.237l-7.352 38.182h-8.775l6.166-31.305h-9.486l-1.66 9.012c-1.897 9.25-4.269 16.127-9.25 19.684-2.37 2.134-5.217 3.32-9.248 3.32l-.475-7.114c1.898-.238 3.558-.95 4.744-1.898 3.32-2.371 4.98-7.826 6.166-13.755l3.32-15.889 25.85-.237zm-376.127-.474c4.98 0 8.538 3.32 8.3 9.486 0 1.66-.237 4.506-.711 6.64l-4.506 22.767h-8.537l4.268-21.818c.237-1.66.475-3.558.475-5.218 0-2.846-1.186-4.743-4.032-4.743-3.794 0-8.063 4.743-9.723 12.806l-3.558 18.973h-8.537l4.269-22.293c.237-1.66.474-3.32.474-4.743 0-2.608-.712-4.743-4.032-4.743-3.557 0-8.3 5.455-9.723 13.044l-3.557 18.972h-8.538l.237-.237 5.218-26.087c.948-4.743 1.66-8.775 2.134-12.095h7.352l-.712 6.403h.237c3.32-4.743 7.827-7.114 12.332-7.114 5.455 0 7.827 3.557 8.064 7.351 3.32-4.743 7.826-7.351 12.806-7.351zm-224.348 0c4.98 0 8.538 3.32 8.3 9.486 0 1.66-.237 4.506-.71 6.64l-4.507 22.767h-8.537l4.268-21.818c.238-1.66.475-3.558.475-5.218 0-2.846-1.186-4.743-4.032-4.743-3.794 0-8.063 4.743-9.723 12.806l-3.557 18.973h-8.538l4.269-22.293c.237-1.66.474-3.32.474-4.743 0-2.608-.711-4.743-4.032-4.743-3.557 0-8.3 5.455-9.723 13.044l-3.557 18.972h-8.538v-.237h.237l5.218-26.087c.948-4.743 1.66-8.775 2.134-12.095h7.352l-.711 6.403h.237c3.32-4.743 7.826-7.114 12.332-7.114 5.217 0 7.826 3.557 8.063 7.351 3.32-4.743 7.826-7.351 12.806-7.351zm351.7 0l8.775.474-4.27 21.344c-.474 2.134-.71 4.031-.71 5.454 0 2.846 1.185 4.743 4.268 4.743 3.795 0 8.3-4.743 9.723-12.095l3.795-19.683h8.775l-5.218 26.087c-.948 4.743-1.423 8.774-2.134 12.095h-7.826l.67-6.04-.274.347c-3.443 4.27-7.505 6.404-11.78 6.404-5.454 0-9.012-3.32-9.012-10.198 0-2.134.238-4.268.95-6.877l4.268-22.055zm504.664 0l9.249.474-4.269 21.344c-.474 2.134-.474 4.031-.711 5.454 0 2.846 1.185 4.743 4.268 4.743 3.795 0 8.3-4.743 9.724-12.095l3.794-19.683h8.775l-5.217 26.087c-.95 4.743-1.423 8.774-2.135 12.095h-7.826l.712-6.404h-.238c-3.557 4.743-7.826 7.115-12.332 7.115-5.217 0-9.012-3.32-9.012-10.198 0-2.134.238-4.268.95-6.877l4.268-22.055zm-136.838 0c4.98 0 8.537 3.32 8.3 9.486 0 1.66-.237 4.506-.711 6.64l-4.506 22.767h-8.538l4.27-21.818c.236-1.66.473-3.558.473-5.218 0-2.846-1.185-4.743-4.031-4.743-3.795 0-8.063 4.743-9.723 12.806l-3.558 18.973h-8.537l4.268-22.293c.238-1.66.475-3.32.475-4.743 0-2.608-.712-4.743-4.032-4.743-3.557 0-8.3 5.455-9.723 13.044l-3.558 18.972h-8.537v-.237h.237l5.217-26.087c.95-4.743 1.66-8.775 2.135-12.095h7.352l-.712 6.403h.237c3.32-4.743 7.826-7.114 12.332-7.114 5.455 0 7.826 3.557 8.064 7.351 3.32-4.743 7.826-7.351 12.806-7.351zm-239.289 0l9.25.474-4.27 21.344c-.474 2.134-.71 4.031-.71 5.454 0 2.846 1.185 4.743 4.268 4.743 3.794 0 8.3-4.743 9.723-12.095l3.795-19.683h8.774l-5.217 26.087c-.949 4.743-1.423 8.774-2.134 12.095h-7.826l.711-6.404h-.237c-3.557 4.743-7.826 7.115-12.332 7.115-5.455 0-9.012-3.32-9.012-10.198 0-2.134.237-4.268.949-6.877l4.268-22.055zm-330.118 0c4.506 0 8.775.474 11.62.948l-7.114 37.945h-8.538l3.083-15.178h-2.608c-4.506 0-7.115 2.846-9.25 7.115-1.422 2.845-2.608 5.691-4.268 8.3h-9.486c2.134-3.32 3.557-6.403 5.217-9.96 2.134-4.27 5.217-7.352 9.012-8.3v-.238c-3.32-.949-7.115-3.795-7.115-8.538.237-10.197 10.91-12.094 19.447-12.094zm394.15-.475c10.91 0 16.126 7.115 16.126 17.312-.237 12.333-7.826 22.293-21.818 22.293-4.031-.237-7.826-.949-10.434-2.372l2.371-6.403c1.897.949 4.98 1.898 8.3 1.898 6.166 0 10.91-4.032 12.095-10.198h-14.94l.948-5.455h14.704c.237-.474.237-.711.237-1.423 0-4.743-2.846-8.774-9.012-8.774-2.846 0-5.454.474-7.352 1.423l-1.423-6.166c2.61-1.186 6.166-2.135 10.198-2.135zm130.198.949l-16.601 17.312c3.557 1.423 5.454 4.98 6.64 11.146.712 3.558 1.423 7.352 2.372 9.724h-8.538c-.948-1.898-1.423-5.93-2.134-9.25-1.186-5.217-2.846-7.114-6.64-7.114h-.95l-3.32 16.6h-8.537l7.59-38.181 8.774-.237-3.32 16.363h.948l13.518-16.363h10.198zm252.332 0l-16.601 17.312c3.557 1.423 5.454 4.98 6.64 11.146.712 3.558 1.423 7.352 2.372 9.724h-8.538c-.948-1.898-1.423-5.93-2.134-9.25-1.186-5.217-2.846-7.114-6.64-7.114h-.95l-3.32 16.6h-8.537l7.59-38.181 8.537-.237-3.32 16.363h1.185l13.518-16.363h10.198zm-505.376 0l-16.6 17.312c3.557 1.423 5.454 4.98 6.64 11.146.711 3.558 1.423 7.352 2.371 9.724h-8.537c-.949-1.898-1.423-5.93-2.135-9.25-1.185-5.217-2.846-7.114-6.64-7.114h-.949l-3.32 16.6h-8.537l7.589-38.181 8.774-.237-3.32 16.363h.949l13.518-16.363h10.197zm-137.312 0l2.371 7.114c.95 2.846 1.423 4.744 2.135 6.404h.237c1.423-2.135 2.372-3.795 4.032-5.93l5.217-7.351h9.723l-15.178 18.735 7.827 19.447h-9.487l-2.371-7.352c-.949-2.846-1.423-4.269-2.135-6.877h-.237c-.948 1.66-2.134 3.557-3.794 6.166l-5.455 7.826h-9.96l15.652-19.684-7.589-18.498h9.012zm542.134 0l-2.846 14.94h12.807l2.846-14.94h8.774l-7.589 38.182h-8.774l3.32-16.601h-12.57l-3.32 16.6h-8.774l7.589-38.181h8.537zm-875.336 0l-7.589 38.182h-9.011l7.826-38.182h8.774zm370.198 0l-2.846 14.94h12.806l2.846-14.94h8.775l-7.589 38.182h-8.775l3.32-16.601h-12.569l-3.32 16.6h-8.775l7.59-38.181h8.537zm-252.57 21.344c-2.37 0-4.742.474-6.64 1.185-.237 1.186-.474 3.32-.711 4.98 0 3.084 1.423 5.218 5.455 5.218 4.268 0 7.826-2.371 7.826-6.403.237-3.557-2.61-4.98-5.93-4.98zm-184.505-14.23c-2.846 0-5.455 2.135-7.352 4.98-1.897 3.084-3.083 7.352-3.32 12.096 0 4.268 1.66 8.537 5.929 8.537 6.877 0 10.197-11.146 10.197-17.312 0-3.795-1.423-8.3-5.454-8.3zm870.118-.474c-4.031 0-8.774 5.218-10.197 13.044l-2.135 11.146c1.423 1.186 2.846 1.66 5.218 1.66 7.114 0 12.095-11.146 12.332-18.972 0-3.32-1.186-6.878-5.218-6.878zm-834.782 11.858c-3.557 0-6.64 3.32-7.59 6.64-.236.949-.473 2.372-.473 3.558.237 2.371 1.66 3.794 4.268 3.794 4.27 0 8.538-3.557 8.538-8.775 0-3.083-1.66-5.217-4.743-5.217zm113.834-12.095c-6.64 0-10.672 10.435-10.672 17.787-.237 4.506 1.897 8.063 6.166 8.063 6.403 0 10.435-10.91 10.435-18.024 0-3.557-1.423-7.826-5.93-7.826zm758.893 0c-6.64 0-10.672 10.435-10.672 17.787-.237 4.506 1.897 8.063 6.166 8.063 6.403 0 10.435-10.91 10.435-18.024 0-3.557-1.423-7.826-5.929-7.826zm155.573-.237c-8.3 0-13.992 10.672-14.229 18.735 0 4.032 1.186 7.115 4.743 7.115 4.032 0 8.538-5.455 10.435-14.23l2.371-11.146c-.948-.237-1.897-.474-3.32-.474zm-835.494 0c-8.3 0-13.992 10.672-14.23 18.735 0 4.032 1.187 7.115 4.744 7.115 4.032 0 8.538-5.455 10.435-14.23l2.371-11.146c-.948-.237-1.897-.474-3.32-.474zm330.356 0c-8.3 0-13.992 10.672-14.23 18.735 0 4.032 1.186 7.115 4.744 7.115 4.031 0 8.537-5.455 10.435-14.23l2.371-11.146c-.949-.237-1.897-.474-3.32-.474zm-294.071-.474c-4.269 0-8.538 1.422-8.538 5.928 0 3.795 4.032 5.455 7.59 5.455h2.845l2.134-11.146c-1.185-.237-2.134-.237-4.031-.237zm-76.127 0c-5.454 0-7.826 6.403-9.012 10.909 3.558-.475 7.352-1.423 9.96-2.61 1.898-1.185 3.321-2.37 3.321-4.505 0-2.372-1.897-3.794-4.269-3.794zm550.435.474c-4.98 0-8.538 4.743-9.723 10.197 8.063-.237 13.992-1.66 13.992-6.403 0-2.371-1.66-3.794-4.269-3.794zm-365.455 0c-4.98 0-8.537 4.743-9.723 10.197 8.063-.237 13.755-1.66 13.992-6.403 0-2.371-1.66-3.794-4.269-3.794zm-709.09-306.64l8.774 96.047h102.688l-96.759 64.743 10.435 116.206-71.383-75.653-98.182 65.218 58.34-107.431-59.763-63.083h93.676l52.174-96.047zm445.85 1.185c30.355 0 66.877 11.858 66.877 63.795 0 34.387-12.806 131.857-108.617 131.857-18.076 0-37.78-3.95-56.809-20.363l-.582-.506 27.273-32.016c3.794 3.795 14.229 13.518 33.438 13.518 26.766 0 36.563-17.2 43.66-42.396l.214-.766h-51.937l8.063-37.47h51.226c0-2.372 1.66-7.352 1.66-12.095 0-8.775-2.609-24.664-25.613-24.664-14.925 0-26.64 5.503-34.692 9.52l-.407.203L660 138.735c16.838-8.063 36.047-15.178 59.051-15.178zm350.988 0c22.036 0 38.51 6.025 48.278 13.952l.338.278-27.273 32.727c-7.114-6.403-15.889-8.775-26.324-8.775-28.695 0-51.225 39.13-50.988 89.644 0 19.21 11.384 27.985 25.613 27.985 11.909 0 21.978-2.99 33.83-12.363l.557-.444 14.23 33.439c-14.467 11.146-35.1 19.21-63.084 19.21-41.502 0-66.166-25.613-66.166-63.084 0-59.05 33.44-132.569 110.989-132.569zm351.225 3.083l-8.775 39.842h-57.39l-7.115 32.253h46.957l-8.064 38.182h-46.956l-8.063 38.182h64.743l-8.775 41.027h-113.36l39.842-189.486h106.957zm-137.787 0l-42.213 189.486h-48.854l32.016-148.695h-37.708l-31.067 148.695h-48.616l40.79-189.486h135.652zm463.874 0l-8.063 40.79h-43.874l-32.016 148.696h-47.668l31.067-148.695h-44.11l8.774-40.79h135.89zm-768.143 0l-68.537 87.036 37.47 102.45h-63.794l-25.613-101.739 59.763-87.747h60.711zm-102.924 0l-39.842 189.486h-48.854l40.79-189.486h47.906zm641.976 0c67.114 0 66.403 32.728 66.166 43.874 0 60.104-54.157 77.905-85.385 78.255l-.94.006h-18.497l-14.23 67.114h-48.616L1456.6 126.64h61.66zm-20.395 40.08l-9.724 43.873h14.23c8.774 0 27.984-5.692 28.22-31.779 0-10.2-9.064-12.016-15.452-12.092l-.22-.002h-17.054z"></path> </g> </svg> 